# xmcd
#
# Track frame offsets: 
#        150
#        10813
#        23195
#        34986
#        47569
#        59742
#        72846
#        84765
#        96241
#        108474
#        120841
#        133206
#        144835
#        157444
#        169423
#        181877
#        195148
#        207787
#
# Disc length: 2916 seconds
#
# Revision: 1
# Processed by: cddbd v1.5.2PL0 Copyright (c) Steve Scherf et al.
# Submitted via: ExactAudioCopyFreeDBPlugin 1.0
#
DISCID=f40b6212
DTITLE=Big Mama Thornton - Big Mama Thornton:  The Complete, 1950-1961
DYEAR=2013
DGENRE=Blues
TTITLE0=I Ain't No Fool Either
TTITLE1=The Big Change
TTITLE2=I Smell a Rat
TTITLE3=Yes, Baby
TTITLE4=Wille Mae's Blues
TTITLE5=Tarzan and the Dignified Monkey
TTITLE6=Stop Hoppin' on Me
TTITLE7=Story of the Blues
TTITLE8=The Fish
TTITLE9=You Don't Move Me No More
TTITLE10=Laugh, Laugh, Laugh
TTITLE11=How Come
TTITLE12=Just Like a Dog (Barking the Wrong Tree)
TTITLE13=My Man Called Me
TTITLE14=You Did Me Wrong
TTITLE15=Big Mama's Blues
TTITLE16=Don't Talk Back
TTITLE17=Big Mama's Coming Home
EXTD=
EXTT0=
EXTT1=
EXTT2=
EXTT3=
EXTT4=
EXTT5=
EXTT6=
EXTT7=
EXTT8=
EXTT9=
EXTT10=
EXTT11=
EXTT12=
EXTT13=
EXTT14=
EXTT15=
EXTT16=
EXTT17=
PLAYORDER=
